<svg xmlns="http://www.w3.org/2000/svg" fill-rule="evenodd" stroke-linejoin="round" stroke-miterlimit="2" clip-rule="evenodd" viewBox="0 0 44 44"><path fill="#ffb300" d="M0 0h44v44H0z"/><path fill="url(#_Linear1)" fill-rule="nonzero" d="M28.823 10.485c.27 0 .512.107.686.28L46 27.256V46H27.829L14.903 33.074c-2.018-2.018-2.647-4.861-1.961-7.439l-.802-.802c-.443-.443-.817-.96-1.098-1.547-.676-1.39-.753-2.974-.232-4.422 1.062-2.992 4.383-4.575 7.394-3.513l2.703 1.023c.251-.367.522-.715.831-1.023 1.506-1.506 3.494-2.259 5.463-2.259.213 0 .444.038.657.058v-1.699c0-.541.425-.966.965-.966z" transform="translate(-2 -2)"/><path fill="none" d="M34.546 16.208h-2.105c-.366-1.043-.946-2.027-1.795-2.877-.85-.849-1.815-1.409-2.857-1.776V9.451c0-.541-.425-.966-.966-.966-.54 0-.965.425-.965.966v1.699c-.213-.02-.444-.058-.657-.058-1.969 0-3.957.753-5.463 2.259-.309.309-.58.656-.831 1.023l-2.703-1.023c-3.011-1.062-6.332.521-7.394 3.513-.521 1.448-.444 3.032.232 4.422.444.926 1.119 1.679 1.93 2.239-.733 2.607-.115 5.503 1.931 7.549 2.047 2.047 4.962 2.664 7.549 1.931.56.811 1.313 1.486 2.24 1.93.81.387 1.641.58 2.49.58.657 0 1.313-.116 1.95-.329 3.012-1.061 4.595-4.382 3.514-7.433l-1.004-2.645c.347-.251.695-.521 1.023-.83 1.68-1.68 2.394-3.938 2.201-6.12h1.699c.541 0 .965-.425.965-.965-.019-.56-.444-.985-.984-.985zm-20.909 4.421c-.483-.174-.869-.521-1.101-.984-.231-.464-.251-.985-.077-1.468.367-1.004 1.467-1.525 2.433-1.177l6.101 2.297c-2.221 1.158-5.078 2.143-7.356 1.332zm12.202 10.909c-.483.173-1.004.154-1.468-.078-.463-.212-.811-.618-.984-1.1-.811-2.278.173-5.116 1.351-7.337l2.278 6.043c.348 1.004-.174 2.124-1.177 2.472zm2.336-10.31l-1.178-3.109c0-.019-.019-.038-.039-.058l-.116-.231c-.038-.077-.077-.135-.135-.213l-.347-.347c-.058-.058-.135-.097-.213-.135-.077-.039-.135-.097-.231-.116-.02 0-.039-.019-.058-.039l-3.089-1.158c.695-.56 1.525-.888 2.432-.888 1.024 0 2.008.405 2.723 1.139 1.409 1.409 1.486 3.63.251 5.155z"/><path fill="#fff" fill-rule="nonzero" d="M35.53 17.193c0 .54-.424.965-.965.965h-1.699c.193 2.182-.521 4.441-2.201 6.12-.328.309-.676.579-1.023.83l1.004 2.645c1.081 3.051-.502 6.372-3.514 7.433-.637.213-1.293.329-1.95.329-.849 0-1.68-.193-2.49-.58-.927-.444-1.68-1.119-2.24-1.93-2.587.733-5.502.116-7.549-1.931-2.046-2.046-2.664-4.942-1.931-7.549-.811-.56-1.486-1.313-1.93-2.239-.676-1.39-.753-2.974-.232-4.422 1.062-2.992 4.383-4.575 7.394-3.513l2.703 1.023c.251-.367.522-.714.831-1.023 1.506-1.506 3.494-2.259 5.463-2.259.213 0 .444.038.657.058V9.451c0-.541.425-.966.965-.966.541 0 .966.425.966.966v2.104c1.042.367 2.007.927 2.857 1.776.849.85 1.429 1.834 1.795 2.877h2.105c.54 0 .965.425.985.985h-.001zm-14.537 2.104L14.892 17c-.966-.348-2.066.173-2.433 1.177-.174.483-.154 1.004.077 1.468.232.463.618.81 1.101.984 2.278.811 5.135-.174 7.356-1.332zm6.023 9.769l-2.278-6.043c-1.178 2.221-2.162 5.059-1.351 7.337.173.482.521.888.984 1.1.464.232.985.251 1.468.078 1.003-.348 1.525-1.468 1.177-2.472zm.908-12.993c-.715-.734-1.699-1.139-2.723-1.139-.907 0-1.737.328-2.432.888l3.089 1.158c.019.02.038.039.058.039.096.019.154.077.231.116.078.038.155.077.213.135l.347.347c.058.078.097.136.135.213l.116.231c.02.02.039.039.039.058l1.178 3.109c1.235-1.526 1.158-3.746-.251-5.155z"/><path fill="none" d="M0 22C0 9.85 9.85 0 22 0s22 9.85 22 22-9.85 22-22 22S0 34.15 0 22z"/><path fill="none" d="M0 0h44v22H0z"/><path fill="none" d="M0 0h44v22H0z"/><path fill="none" d="M0 0h44v22H0z"/><path fill="none" d="M0 0h44v22H0z"/><path fill="none" d="M0 0h44v22H0z"/><defs><linearGradient id="_Linear1" x1="0" x2="1" y1="0" y2="0" gradientTransform="rotate(44.984 -7.42714445 17.88545726) scale(79.7943)" gradientUnits="userSpaceOnUse"><stop offset="0" stop-opacity=".3"/><stop offset="1" stop-opacity="0"/></linearGradient></defs></svg>