<svg version="1" xmlns="http://www.w3.org/2000/svg" width="933.333" height="933.333" viewBox="0 0 700.000000 700.000000"><path d="M464.7 2.3c-7.4 3.2-13.1 10.3-14.3 17.4-.3 2.1-.7 13.9-.7 26.3l-.2 22.5-6-.4c-11.9-.9-36.1 0-38.4 1.3-.3.2-3 .7-6 1-2.9.4-5.6.8-6 1-.3.2-2.4.7-4.6 1-4.2.7-5.1.9-18 5.1-11.4 3.7-17.7 6.3-28.1 11.5-7.8 4-29 17.1-30.4 18.9-.3.3-2.3 1.9-4.5 3.5-9.3 6.9-31.8 31.2-36.4 39.4-.7 1.3-3.1.6-16.2-4.2-8.5-3.1-16.3-6.1-17.4-6.6-1.1-.5-5.6-2.2-10-3.9-4.4-1.6-12-4.5-17-6.4-10.6-4.1-24.2-8.2-30.5-9.3-2.5-.4-4.7-.8-5-.9-11.1-2.6-32.6-2.6-50 0-13.5 2.1-32.7 8.6-46 15.8-6.6 3.6-18.6 11.2-20 12.7-.3.3-3.4 3-7 6-14.8 12.5-27.4 28.8-36.8 47.6-2.9 5.8-9.7 24.2-10.6 28.7-.3 1.2-1.2 6-2.2 10.7-2.4 11.8-2.4 39 0 52 2.1 11.4 7 26.5 12.2 37.5 3.8 8.2 14.2 24.6 18.9 30 8.9 10.2 20.7 21.2 28.1 26.3l3.1 2.1-2.3 9.8c-3.9 16.3-5.2 30.1-4.9 49.3.2 9.6.6 19.1.9 21 .4 1.9 1.1 6.4 1.7 10 9.2 54.9 43 104.4 91.7 134.3 8.4 5.1 11.5 6.7 24.9 12.8 9.7 4.3 26.8 9.6 38.8 11.8 6.1 1.1 12.4 2.3 14 2.7 5.2 1 37.7 1.2 45 .3 3.9-.5 8.8-1.1 11-1.4 7-.9 19.3-3.6 22.6-4.9 1.1-.5 3.2 1.5 7.6 7.1 18.5 23.7 41.7 40.1 70.5 49.7 17.1 5.7 29.4 7.5 48.8 7.2 18.4-.3 30.7-2.3 46.1-7.6 9.4-3.2 26.1-10.8 26.7-12.2.2-.4.8-.8 1.2-.8 1.1 0 8.9-5.2 16-10.6 40.2-30.9 62.8-85.3 56.3-135.4-2.4-18.3-4-23.9-15.6-54.5-1.8-5-6.7-17.7-10.7-28.3-4-10.6-7.1-19.4-6.9-19.5 22.4-16.2 36.7-30.7 50.2-51 13.2-19.7 22.8-41.6 28-64.2 4.2-18.2 5.1-26.6 5.1-48.1v-16.1l23.8-.1c26.5-.1 29.6-.7 35.8-6 6.2-5.2 8.5-10.3 8.4-18.7 0-10.1-3.9-17.3-11.9-22-5.9-3.5-9.4-3.8-39.7-3.8h-27.7l-3.2-8.1c-4.3-10.9-10.2-22.6-15.5-30.9-2.4-3.7-4.4-7.2-4.4-7.6 0-.5-.3-1.1-.7-1.3-.5-.2-3.7-4.1-7.2-8.8-12-15.8-36.8-38-51.3-45.9-7.7-4.2-22.7-11.8-24.5-12.5-1-.3-4.5-1.6-7.7-2.9l-5.9-2.3-.1-30.5c-.1-27.9-.3-30.7-2.1-34.4-6-12.1-20.7-17.7-32.8-12.2zm-13.2 166.1c27.5 6 49.7 21.1 64.6 44.1 7.2 11.1 12.8 24.7 14.4 35.2.3 2.1.8 5 1 6.3.7 3.7.7 17.7 0 24-1.4 11.4-5.4 24.5-10.6 34.5-2.7 5.2-10.2 16.5-10.9 16.5-.3 0-1.6-2.6-2.7-5.8-1.2-3.1-6.9-18.3-12.8-33.7-5.9-15.4-11.5-30.3-12.6-33.2-6.3-17.2-15.2-27.9-28.9-34.6-4.8-2.3-9.1-4.3-9.6-4.4-1.5-.3-72.7-27.3-73.1-27.7-.7-.6 12.8-9.1 20.2-12.8 6.9-3.5 16.8-6.8 25.5-8.6 4.8-1.1 30.5-.9 35.5.2zM160 218.6c1.9.4 4 .8 4.5 1 1.7.5 35.9 13.4 38 14.4 1.9.8 75 28.3 106.3 39.9l15.3 5.7-11.3 5.6c-33.5 16.6-66.8 28.1-98.1 33.7-31.6 5.7-71.1 1.9-88.9-8.6-19.2-11.4-28.6-31.7-24.4-52.3 2.3-10.7 6.1-17.7 14-25.5 12.6-12.4 27.7-17.1 44.6-13.9zM432.4 407c5.9 15.7 11.1 29.4 11.6 30.5.5 1.1 4.6 11.9 9 24 4.5 12.1 8.5 22.9 9 24 4.5 10.7 18.8 50 19.4 53.5 3.1 17.5-1.9 33.6-14 45.6-9.4 9.2-20.2 13.9-32.9 14.3-27.2.8-46.5-16.8-52.8-48-2.7-12.9-2.9-15.1-3.2-29.4-.5-27.6 4.8-55.3 17-89 7.9-21.7 24.4-57.3 25.6-55.1.4.6 5.5 13.9 11.3 29.6z"/></svg>