<svg xmlns="http://www.w3.org/2000/svg" fill-rule="evenodd" stroke-linejoin="round" stroke-miterlimit="2" clip-rule="evenodd" viewBox="0 0 24 24"><path fill="none" d="M0 0h24v24H0z"/><path fill-rule="nonzero" d="M7 18l.88125.88125 3.49375-3.4875V23h1.25v-7.60625l3.4875 3.49375L17 18l-5-5-5 5zM16.9205 4.6c-.225-.6625-.8625-1.1-1.575-1.1h-1.35l-.3875-1.2125C13.433 1.5375 12.758 1 11.9955 1c-.7625 0-1.4375.5375-1.6125 1.3l-.3875 1.2H8.658c-.7125 0-1.35.4375-1.575 1.1-.2375.7.05 1.4625.7 1.85l1.0875.65-.5 1.55c-.2875.725-.05 1.5625.5625 2.025.2875.2125.6375.325.975.325.3875 0 .7625-.1375 1.075-.4l1.0125-.875 1.0125.875c.3125.2625.6875.4 1.075.4.3375 0 .6875-.1125.975-.325.625-.4625.85-1.3.5625-2.025L15.133 7.1l1.0875-.65c.6375-.3875.925-1.15.7-1.85zm-4.925 2.65c-.6875 0-1.25-.5625-1.25-1.25s.5625-1.25 1.25-1.25 1.25.5625 1.25 1.25-.5625 1.25-1.25 1.25z"/></svg>