<?xml version="1.0" encoding="UTF-8"?>
<!DOCTYPE svg PUBLIC "-//W3C//DTD SVG 1.1//EN" "http://www.w3.org/Graphics/SVG/1.1/DTD/svg11.dtd">
<svg version="1.2" width="15.24mm" height="14.48mm" viewBox="0 0 1524 1448" preserveAspectRatio="xMidYMid" fill-rule="evenodd" stroke-width="28.222" stroke-linejoin="round" xmlns="http://www.w3.org/2000/svg" xmlns:ooo="http://xml.openoffice.org/svg/export" xmlns:xlink="http://www.w3.org/1999/xlink" xmlns:presentation="http://sun.com/xmlns/staroffice/presentation" xmlns:smil="http://www.w3.org/2001/SMIL20/" xmlns:anim="urn:oasis:names:tc:opendocument:xmlns:animation:1.0" xml:space="preserve">
  <path fill="rgb(27,24,23)" stroke="none" d="M 762,23 C 364,23 43,346 43,742 43,1060 248,1330 536,1425 571,1432 585,1409 585,1390 585,1373 583,1328 583,1268 382,1311 339,1171 339,1171 307,1089 261,1066 261,1066 194,1022 266,1022 266,1022 337,1027 376,1096 376,1096 440,1206 545,1175 586,1156 592,1110 611,1079 631,1060 471,1042 303,981 303,705 303,627 331,562 377,512 369,495 344,421 383,322 383,322 445,303 582,396 640,380 701,372 762,372 824,372 885,380 942,396 1080,303 1140,322 1140,322 1179,421 1155,495 1148,512 1194,562 1221,627 1221,705 1221,981 1052,1042 892,1060 919,1083 941,1126 941,1193 941,1289 941,1366 941,1390 941,1409 954,1432 990,1425 1275,1329 1481,1060 1481,742 1481,346 1160,23 762,23 Z"/>
</svg>
